<svg width="315" height="85" viewBox="0 0 315 85" fill="none" xmlns="http://www.w3.org/2000/svg">
<g clip-path="url(#clip0_27_404)">
<path d="M17.5591 57.4556L22.0406 27.7063H38.6379L37.4187 35.8159H28.6363L28.2059 38.6733H36.5942L35.4475 46.2367H27.0585L26.5926 49.346H36.415L35.1964 57.4556H17.5591Z" fill="white"/>
<path d="M50.6256 57.4555L48.0728 50.3622L43.255 57.4555H35.1108L44.6027 45.0519L39.6419 33.6565H47.1841L49.3924 40.0091L53.579 33.6565H61.6088L52.834 44.9506L58.2823 57.4555H50.6256Z" fill="white"/>
<mask id="mask0_27_404" style="mask-type:luminance" maskUnits="userSpaceOnUse" x="0" y="0" width="315" height="85">
<path d="M315 0H0V85H315V0Z" fill="white"/>
</mask>
<g mask="url(#mask0_27_404)">
<path d="M65.3937 57.4547H58.7974L62.3825 33.6558H69.9534C72.5723 33.6558 74.5747 34.2943 75.9617 35.5714C77.3475 36.8492 78.041 38.6091 78.041 40.8489C78.041 42.3733 77.8261 43.6959 77.3958 44.8165C76.9654 45.9371 76.3387 46.8558 75.5174 47.5726C74.6948 48.2901 73.7 48.8221 72.5342 49.1686C71.3677 49.5165 70.0398 49.6901 68.5485 49.6901H66.5983L65.3937 57.4547ZM68.5193 43.8419C69.4372 43.8419 70.1542 43.6631 70.6704 43.3032C71.1866 42.9456 71.4453 42.3845 71.4453 41.6223C71.4453 40.9062 71.2342 40.4122 70.8134 40.1433C70.3926 39.875 69.8192 39.7402 69.0927 39.7402H68.089L67.4584 43.8412L68.5193 43.8419Z" fill="white"/>
</g>
<mask id="mask1_27_404" style="mask-type:luminance" maskUnits="userSpaceOnUse" x="0" y="0" width="315" height="85">
<path d="M315 0H0V85H315V0Z" fill="white"/>
</mask>
<g mask="url(#mask1_27_404)">
<path d="M88.1077 57.4547L85.326 48.7491H84.5225L83.2607 57.4547H76.8652L80.4504 33.6558H88.7961C89.9041 33.6558 90.9078 33.8018 91.8067 34.0931C92.7055 34.3845 93.4702 34.8107 94.1008 35.3702C94.7327 35.9305 95.2145 36.6197 95.5495 37.4371C95.8839 38.256 96.0517 39.191 96.0517 40.2446C96.0517 42.2161 95.6544 43.8412 94.8611 45.1182C94.0677 46.3961 92.9827 47.2693 91.6064 47.7402L95.5635 57.4547H88.1077ZM86.645 43.8084C87.5241 43.8084 88.2126 43.6355 88.7097 43.2876C89.2068 42.9403 89.4553 42.3852 89.4553 41.623C89.4553 40.9293 89.25 40.4525 88.8387 40.1939C88.4274 39.9376 87.8681 39.808 87.1612 39.808H85.928L85.326 43.8084H86.645Z" fill="white"/>
</g>
<mask id="mask2_27_404" style="mask-type:luminance" maskUnits="userSpaceOnUse" x="0" y="0" width="315" height="85">
<path d="M315 0H0V85H315V0Z" fill="white"/>
</mask>
<g mask="url(#mask2_27_404)">
<path d="M96.3379 57.4555L99.9231 33.6565H113.201L112.226 40.144H105.199L104.855 42.4299H111.566L110.649 48.4801H103.938L103.565 50.9679H111.422L110.448 57.4555H96.3379Z" fill="white"/>
</g>
<mask id="mask3_27_404" style="mask-type:luminance" maskUnits="userSpaceOnUse" x="0" y="0" width="315" height="85">
<path d="M315 0H0V85H315V0Z" fill="white"/>
</mask>
<g mask="url(#mask3_27_404)">
<path d="M125.962 40.749C125.636 40.3004 125.216 39.9368 124.701 39.6559C124.184 39.3765 123.582 39.2364 122.893 39.2364C122.358 39.2364 121.875 39.3706 121.445 39.6395C121.015 39.9085 120.8 40.3235 120.8 40.8838C120.8 41.3316 120.981 41.6789 121.342 41.9255C121.705 42.1721 122.238 42.4299 122.943 42.6981C123.819 43.0342 124.6 43.4164 125.286 43.8411C125.971 44.2673 126.552 44.7606 127.028 45.3209C127.505 45.8812 127.871 46.5197 128.129 47.2365C128.386 47.954 128.515 48.7609 128.515 49.6565C128.515 51.181 128.229 52.4804 127.658 53.5549C127.087 54.6308 126.358 55.5055 125.472 56.1776C124.587 56.8489 123.611 57.3422 122.544 57.6558C121.477 57.9695 120.437 58.1267 119.423 58.1267C118.62 58.1267 117.818 58.0492 117.015 57.8928C116.211 57.7356 115.441 57.5113 114.706 57.22C113.97 56.9294 113.276 56.5702 112.627 56.1448C111.977 55.7201 111.413 55.2365 110.935 54.7001L115.466 49.7922C115.696 50.1066 115.972 50.386 116.298 50.6326C116.623 50.8792 116.962 51.0864 117.315 51.2548C117.669 51.4224 118.028 51.5565 118.391 51.6579C118.754 51.7577 119.089 51.8091 119.395 51.8091C120.064 51.8091 120.599 51.6802 121 51.4217C121.402 51.1646 121.603 50.7891 121.603 50.2958C121.603 49.892 121.435 49.5343 121.101 49.2199C120.766 48.9062 120.14 48.5821 119.222 48.2453C118.496 47.9756 117.813 47.6619 117.172 47.3035C116.532 46.9452 115.977 46.513 115.509 46.0101C115.04 45.5056 114.672 44.8999 114.405 44.1943C114.136 43.4887 114.004 42.6303 114.004 41.623C114.004 40.3906 114.218 39.2476 114.649 38.1941C115.078 37.1405 115.691 36.2278 116.484 35.4551C117.277 34.681 118.223 34.0767 119.324 33.6393C120.422 33.202 121.632 32.9836 122.951 32.9836C123.677 32.9836 124.394 33.0567 125.102 33.202C125.809 33.348 126.479 33.5499 127.109 33.8077C127.74 34.0648 128.323 34.3732 128.859 34.7316C129.393 35.09 129.843 35.4939 130.207 35.9417L125.962 40.749Z" fill="white"/>
</g>
<mask id="mask4_27_404" style="mask-type:luminance" maskUnits="userSpaceOnUse" x="0" y="0" width="315" height="85">
<path d="M315 0H0V85H315V0Z" fill="white"/>
</mask>
<g mask="url(#mask4_27_404)">
<path d="M142.481 40.749C142.155 40.3004 141.735 39.9368 141.219 39.6559C140.702 39.3765 140.1 39.2364 139.412 39.2364C138.877 39.2364 138.394 39.3706 137.964 39.6395C137.534 39.9085 137.319 40.3235 137.319 40.8838C137.319 41.3316 137.499 41.6789 137.861 41.9255C138.223 42.1721 138.757 42.4299 139.462 42.6981C140.338 43.0342 141.118 43.4164 141.805 43.8411C142.49 44.2673 143.071 44.7606 143.547 45.3209C144.023 45.8812 144.39 46.5197 144.647 47.2365C144.905 47.954 145.033 48.7609 145.033 49.6565C145.033 51.181 144.747 52.4804 144.176 53.5549C143.606 54.6308 142.877 55.5055 141.991 56.1776C141.106 56.8489 140.13 57.3422 139.062 57.6558C137.995 57.9695 136.956 58.1267 135.942 58.1267C135.139 58.1267 134.336 58.0492 133.533 57.8928C132.73 57.7356 131.96 57.5113 131.225 57.22C130.488 56.9294 129.795 56.5702 129.145 56.1448C128.496 55.7201 127.931 55.2365 127.453 54.7001L131.984 49.7922C132.214 50.1066 132.491 50.386 132.816 50.6326C133.141 50.8792 133.481 51.0864 133.834 51.2548C134.187 51.4224 134.547 51.5565 134.91 51.6579C135.272 51.7577 135.608 51.8091 135.913 51.8091C136.583 51.8091 137.118 51.6802 137.519 51.4217C137.921 51.1646 138.122 50.7891 138.122 50.2958C138.122 49.892 137.954 49.5343 137.62 49.2199C137.285 48.9062 136.659 48.5821 135.741 48.2453C135.014 47.9756 134.331 47.6619 133.691 47.3035C133.05 46.9452 132.496 46.513 132.027 46.0101C131.558 45.5056 131.191 44.8999 130.923 44.1943C130.655 43.4887 130.522 42.6303 130.522 41.623C130.522 40.3906 130.737 39.2476 131.167 38.1941C131.597 37.1405 132.209 36.2278 133.003 35.4551C133.796 34.681 134.742 34.0767 135.842 33.6393C136.941 33.202 138.151 32.9836 139.47 32.9836C140.196 32.9836 140.913 33.0567 141.62 33.202C142.328 33.348 142.997 33.5499 143.628 33.8077C144.259 34.0648 144.842 34.3732 145.377 34.7316C145.912 35.09 146.361 35.4939 146.725 35.9417L142.481 40.749Z" fill="white"/>
</g>
<mask id="mask5_27_404" style="mask-type:luminance" maskUnits="userSpaceOnUse" x="0" y="0" width="315" height="85">
<path d="M315 0H0V85H315V0Z" fill="white"/>
</mask>
<g mask="url(#mask5_27_404)">
<path d="M173.63 55.586C172.972 56.1038 172.225 56.5598 171.389 56.9517C170.552 57.3437 169.615 57.6663 168.575 57.9181C167.535 58.1707 166.383 58.2966 165.116 58.2966C163.204 58.2966 161.5 57.9882 160.008 57.372C158.513 56.7558 157.248 55.8736 156.208 54.7247C155.168 53.5765 154.373 52.1899 153.824 50.5648C153.274 48.9405 153 47.1337 153 45.1443C153 42.5953 153.376 40.2148 154.128 38.0011C154.882 35.7889 155.939 33.8562 157.302 32.2028C158.663 30.5502 160.277 29.2478 162.14 28.2955C164.005 27.3433 166.047 26.8665 168.27 26.8665C170.469 26.8665 172.405 27.2658 174.078 28.0638C175.751 28.8626 177.03 29.8498 177.913 31.0263L172.142 38.0011C171.712 37.2731 171.144 36.7344 170.439 36.3843C169.734 36.0341 168.94 35.8582 168.055 35.8582C167.146 35.8582 166.322 36.0758 165.581 36.5094C164.841 36.9438 164.207 37.5332 163.683 38.2745C163.156 39.0174 162.749 39.8787 162.463 40.8585C162.176 41.8398 162.032 42.8911 162.032 44.0103C162.032 45.4669 162.421 46.6985 163.198 47.7081C163.975 48.7163 165.14 49.2207 166.693 49.2207C167.601 49.2207 168.45 48.9957 169.238 48.5486C170.027 48.1001 170.708 47.5547 171.281 46.9087L175.368 54.0519C174.866 54.5555 174.286 55.0674 173.63 55.586Z" fill="white"/>
</g>
<mask id="mask6_27_404" style="mask-type:luminance" maskUnits="userSpaceOnUse" x="0" y="0" width="315" height="85">
<path d="M315 0H0V85H315V0Z" fill="white"/>
</mask>
<g mask="url(#mask6_27_404)">
<path d="M190.243 57.4547L189.784 53.8246H183.188L181.497 57.4547H174.097L186.572 33.6558H193.57L197.126 57.4547H190.243ZM188.637 41.7571L185.741 47.8751H189.239L188.637 41.7571Z" fill="white"/>
</g>
<mask id="mask7_27_404" style="mask-type:luminance" maskUnits="userSpaceOnUse" x="0" y="0" width="315" height="85">
<path d="M315 0H0V85H315V0Z" fill="white"/>
</mask>
<g mask="url(#mask7_27_404)">
<path d="M208.712 57.4547L205.93 48.7491H205.127L203.865 57.4547H197.47L201.055 33.6558H209.401C210.509 33.6558 211.512 33.8018 212.411 34.0931C213.31 34.3845 214.075 34.8107 214.705 35.3702C215.336 35.9305 215.819 36.6197 216.153 37.4371C216.488 38.256 216.656 39.191 216.656 40.2446C216.656 42.2161 216.258 43.8412 215.465 45.1182C214.672 46.3961 213.587 47.2693 212.21 47.7402L216.168 57.4547H208.712ZM207.25 43.8084C208.129 43.8084 208.817 43.6355 209.314 43.2876C209.811 42.9403 210.06 42.3852 210.06 41.623C210.06 40.9293 209.854 40.4525 209.443 40.1939C209.032 39.9376 208.473 39.808 207.766 39.808H206.532L205.93 43.8084H207.25Z" fill="white"/>
</g>
<mask id="mask8_27_404" style="mask-type:luminance" maskUnits="userSpaceOnUse" x="0" y="0" width="315" height="85">
<path d="M315 0H0V85H315V0Z" fill="white"/>
</mask>
<g mask="url(#mask8_27_404)">
<path d="M216.942 57.4555L220.528 33.6565H233.806L232.83 40.144H225.804L225.46 42.4299H232.17L231.253 48.4801H224.542L224.169 50.9679H232.027L231.053 57.4555H216.942Z" fill="white"/>
</g>
<mask id="mask9_27_404" style="mask-type:luminance" maskUnits="userSpaceOnUse" x="0" y="0" width="315" height="85">
<path d="M315 0H0V85H315V0Z" fill="white"/>
</mask>
<g mask="url(#mask9_27_404)">
<path d="M277.629 20.4199L270.012 33.7593L262.482 20.4199H242.418L261.089 52.5438H278.934L297.692 20.4199H277.629Z" fill="white"/>
</g>
<mask id="mask10_27_404" style="mask-type:luminance" maskUnits="userSpaceOnUse" x="0" y="0" width="315" height="85">
<path d="M315 0H0V85H315V0Z" fill="white"/>
</mask>
<g mask="url(#mask10_27_404)">
<path d="M261.771 51.0097H278.238L270.004 36.4968L261.771 51.0097Z" fill="#004990"/>
</g>
<mask id="mask11_27_404" style="mask-type:luminance" maskUnits="userSpaceOnUse" x="0" y="0" width="315" height="85">
<path d="M315 0H0V85H315V0Z" fill="white"/>
</mask>
<g mask="url(#mask11_27_404)">
<path d="M261.785 21.9229H244.88L261.771 51.0097L270.004 36.4976L261.785 21.9229Z" fill="#EE3124"/>
</g>
<mask id="mask12_27_404" style="mask-type:luminance" maskUnits="userSpaceOnUse" x="0" y="0" width="315" height="85">
<path d="M315 0H0V85H315V0Z" fill="white"/>
</mask>
<g mask="url(#mask12_27_404)">
<path d="M278.29 21.9229L270.004 36.4976L278.238 51.0097L295.196 21.9229H278.29Z" fill="#0093D0"/>
</g>
<mask id="mask13_27_404" style="mask-type:luminance" maskUnits="userSpaceOnUse" x="0" y="0" width="315" height="85">
<path d="M315 0H0V85H315V0Z" fill="white"/>
</mask>
<g mask="url(#mask13_27_404)">
<path d="M252.053 55.501L250.074 61.4148L248.069 55.501H245.649L248.879 64.527H251.166L254.366 55.501H252.053Z" fill="white"/>
</g>
<mask id="mask14_27_404" style="mask-type:luminance" maskUnits="userSpaceOnUse" x="0" y="0" width="315" height="85">
<path d="M315 0H0V85H315V0Z" fill="white"/>
</mask>
<g mask="url(#mask14_27_404)">
<path d="M262.013 55.4341H259.875V64.5413H262.013V55.4341Z" fill="white"/>
</g>
<mask id="mask15_27_404" style="mask-type:luminance" maskUnits="userSpaceOnUse" x="225" y="15" width="74" height="370">
<path d="M225.57 15.1091L225.408 384.305L297.939 384.379L298.101 15.1836L225.57 15.1091Z" fill="white"/>
</mask>
<g mask="url(#mask15_27_404)">
<path d="M275.673 55.4336L275.669 64.5405L277.808 64.5423L277.812 55.4353L275.673 55.4336Z" fill="white"/>
</g>
<mask id="mask16_27_404" style="mask-type:luminance" maskUnits="userSpaceOnUse" x="0" y="0" width="315" height="85">
<path d="M315 0H0V85H315V0Z" fill="white"/>
</mask>
<g mask="url(#mask16_27_404)">
<path d="M266.861 57.4325L265.72 62.137L264.559 57.4325L262.304 57.4265L264.327 64.5414H266.93L268.943 57.4325H266.861Z" fill="white"/>
</g>
<mask id="mask17_27_404" style="mask-type:luminance" maskUnits="userSpaceOnUse" x="0" y="0" width="315" height="85">
<path d="M315 0H0V85H315V0Z" fill="white"/>
</mask>
<g mask="url(#mask17_27_404)">
<path d="M280.628 57.4324H278.485V64.5413H280.628V57.4324Z" fill="white"/>
</g>
<mask id="mask18_27_404" style="mask-type:luminance" maskUnits="userSpaceOnUse" x="0" y="0" width="315" height="85">
<path d="M315 0H0V85H315V0Z" fill="white"/>
</mask>
<g mask="url(#mask18_27_404)">
<path d="M280.628 55.4341H278.485V56.7715H280.628V55.4341Z" fill="white"/>
</g>
<mask id="mask19_27_404" style="mask-type:luminance" maskUnits="userSpaceOnUse" x="0" y="0" width="315" height="85">
<path d="M315 0H0V85H315V0Z" fill="white"/>
</mask>
<g mask="url(#mask19_27_404)">
<path d="M285.482 57.4324H281.309V64.5413H283.443V58.9039H285.048V64.5413H287.19V59.2429C287.191 57.8206 286.422 57.4324 285.482 57.4324Z" fill="white"/>
</g>
<mask id="mask20_27_404" style="mask-type:luminance" maskUnits="userSpaceOnUse" x="0" y="0" width="315" height="85">
<path d="M315 0H0V85H315V0Z" fill="white"/>
</mask>
<g mask="url(#mask20_27_404)">
<path d="M273.436 64.5406C274.478 64.5406 274.997 63.9512 274.997 62.8634C274.997 61.8962 275 59.1804 275 59.1804C275 57.7267 274.178 57.4316 273.413 57.4316H270.624C269.86 57.4316 269.037 57.7267 269.037 59.1804C269.037 59.1804 269.041 61.897 269.041 62.8634C269.041 63.9512 269.558 64.5406 270.605 64.5406H273.436ZM271.199 63.0653V58.9352L272.842 58.8943V63.0653H271.199Z" fill="white"/>
</g>
<mask id="mask21_27_404" style="mask-type:luminance" maskUnits="userSpaceOnUse" x="0" y="0" width="315" height="85">
<path d="M315 0H0V85H315V0Z" fill="white"/>
</mask>
<g mask="url(#mask21_27_404)">
<path d="M259.176 59.2467C259.176 57.8206 258.403 57.4324 257.354 57.4324H254.298L253.823 58.7698H257.045V59.7824H254.884C254.005 59.7824 253.183 60.1207 253.183 61.5967V62.9796C253.183 64.0413 253.723 64.5413 254.835 64.5413C255.683 64.5413 259.176 64.5361 259.176 64.5361V59.2467ZM257.045 63.0645H255.23V61.1198H257.045V63.0645Z" fill="white"/>
</g>
<mask id="mask22_27_404" style="mask-type:luminance" maskUnits="userSpaceOnUse" x="0" y="0" width="315" height="85">
<path d="M315 0H0V85H315V0Z" fill="white"/>
</mask>
<g mask="url(#mask22_27_404)">
<path d="M287.822 59.3405V62.721C287.822 63.3715 288.016 63.7612 288.145 63.934C288.424 64.3096 288.865 64.5413 289.656 64.5413H293.065L293.369 63.1986H289.952V62.0519H292.219C293.159 62.0519 293.738 61.6362 293.738 60.4023V59.0775C293.738 57.7885 293.011 57.4324 292.056 57.4324H289.64C288.572 57.4324 287.822 57.9711 287.822 59.3405ZM289.953 58.9032H291.767V60.7152H289.953V58.9032Z" fill="white"/>
</g>
<mask id="mask23_27_404" style="mask-type:luminance" maskUnits="userSpaceOnUse" x="0" y="0" width="315" height="85">
<path d="M315 0H0V85H315V0Z" fill="white"/>
</mask>
<g mask="url(#mask23_27_404)">
<path d="M281.362 51.465V51.126H282.431V51.465H282.07V52.5431H281.72V51.465H281.362ZM283.04 51.126L283.261 51.9419L283.477 51.126H283.98V52.5431H283.661V51.5172L283.398 52.5431H283.124L282.861 51.5216V52.5431H282.538V51.126H283.04Z" fill="white"/>
</g>
</g>
<defs>
<clipPath id="clip0_27_404">
<rect width="315" height="85" fill="white"/>
</clipPath>
</defs>
</svg>
